<svg width="27" height="48" viewBox="0 0 27 48" fill="none" xmlns="http://www.w3.org/2000/svg">
<path d="M11.25 -9.58021e-06C10.9336 0.0624904 10.668 0.269521 10.5312 0.56249L9.75 2.24999C9.34375 2.43358 4.26562 4.71483 1.09375 6.09374C0.734375 6.2539 0.503906 6.60937 0.5 6.99999C0.5 10.8125 2.12891 13.7773 3.65625 16.1875C5.18359 18.5976 6.5 20.5 6.5 22C6.5 22.418 6.30078 22.8203 5.78125 23.4687C5.26172 24.1172 4.48438 24.9297 3.6875 26.0625C2.09375 28.3281 0.5 31.8555 0.5 38C0.5 38.5508 0.949219 39 1.5 39H12.5V48H14.5V39H25.5C26.0508 39 26.5 38.5508 26.5 38C26.5 31.8555 24.9062 28.3281 23.3125 26.0625C22.5156 24.9297 21.7383 24.1172 21.2188 23.4687C20.6992 22.8203 20.5 22.418 20.5 22C20.5 20.5 21.8164 18.5976 23.3438 16.1875C24.8711 13.7773 26.5 10.8125 26.5 6.99999C26.4961 6.60937 26.2656 6.2539 25.9062 6.09374C22.7344 4.71483 17.6562 2.43358 17.25 2.24999L16.4688 0.56249C16.3008 0.214834 15.9492 -0.00391558 15.5625 -9.58021e-06H11.4375C11.4062 -9.58021e-06 11.375 -9.58021e-06 11.3438 -9.58021e-06C11.3125 -9.58021e-06 11.2812 -9.58021e-06 11.25 -9.58021e-06ZM12.0938 1.99999H14.9062L15.5938 3.43749C15.6992 3.64843 15.8789 3.81249 16.0938 3.90624C16.0938 3.90624 21.0156 6.12108 24.375 7.59374C24.207 10.5351 23.0312 12.957 21.6562 15.125C21.5469 15.2969 21.4219 15.457 21.3125 15.625C21.293 15.6328 21.2695 15.6445 21.25 15.6562C21.25 15.6562 20.5195 16 19.5 16C18.0586 16 17.1875 15.25 17.1875 15.25C16.9531 15.0508 16.6445 14.9726 16.3438 15.0312C15.9648 15.1094 15.668 15.3945 15.5742 15.7695C15.4805 16.1406 15.6094 16.5351 15.9062 16.7812C15.9062 16.7812 17.3398 18 19.5 18C19.625 18 19.7266 17.9766 19.8438 17.9687C19.082 19.2578 18.5 20.5508 18.5 22C18.5 23.082 19.0508 23.957 19.6562 24.7187C20.2617 25.4805 20.9844 26.2226 21.6875 27.2187C23 29.0859 24.2695 31.9062 24.4375 37H2.5625C2.73047 31.9062 4 29.0859 5.3125 27.2187C6.01562 26.2226 6.73828 25.4805 7.34375 24.7187C7.94922 23.957 8.5 23.082 8.5 22C8.5 20.5508 7.91797 19.2578 7.15625 17.9687C7.27344 17.9766 7.375 18 7.5 18C9.66016 18 11.0938 16.7812 11.0938 16.7812C11.4297 16.4922 11.5352 16.0195 11.3555 15.6172C11.1758 15.2109 10.75 14.9726 10.3125 15.0312C10.1289 15.0547 9.95703 15.1328 9.8125 15.25C9.8125 15.25 8.94141 16 7.5 16C6.48047 16 5.75 15.6562 5.75 15.6562C5.73047 15.6445 5.70703 15.6328 5.6875 15.625C5.68359 15.6211 5.66016 15.6289 5.65625 15.625C5.55078 15.4609 5.44922 15.293 5.34375 15.125C3.96875 12.957 2.79297 10.5351 2.625 7.59374C5.98438 6.12108 10.9062 3.90624 10.9062 3.90624C11.1211 3.81249 11.3008 3.64843 11.4062 3.43749L12.0938 1.99999Z" fill="#A8715A"/>
</svg>
